<svg xmlns="http://www.w3.org/2000/svg" width="647.913" height="202.541" viewBox="0 0 647.913 202.541">
  <g id="Group_18" data-name="Group 18" transform="translate(-150.042 -230.192)">
    <g id="Group_15" data-name="Group 15" transform="translate(150.042 341.961)">
      <path id="Path_73" data-name="Path 73" d="M150.042,320.161c0-24.64,21.833-45.324,47.749-45.324a48.731,48.731,0,0,1,35.617,15.449l-18.256,15.957a22.133,22.133,0,0,0-17.362-8.935c-12,0-22.214,10.467-22.214,22.852,0,12.51,10.214,22.977,22.214,22.977a22.379,22.379,0,0,0,17.489-8.935l18.128,15.83a48.371,48.371,0,0,1-35.617,15.577C171.875,365.609,150.042,344.8,150.042,320.161Z" transform="translate(-150.042 -274.837)" fill="#fff"/>
      <path id="Path_74" data-name="Path 74" d="M229.684,283.506v20.426c-13.023,0-20.684,7.153-20.684,19.152v27.959H184.363v-66H209v11.746C213.344,288.613,220.749,283.506,229.684,283.506Z" transform="translate(-98.44 -261.803)" fill="#fff"/>
      <path id="Path_75" data-name="Path 75" d="M201.651,317.977c0-18.766,16.979-34.471,37.277-34.471,20.171,0,37.15,15.7,37.15,34.471s-16.979,34.6-37.15,34.6C218.63,352.575,201.651,336.743,201.651,317.977Zm51.447,0a14.235,14.235,0,1,0-14.17,14.172A14.278,14.278,0,0,0,253.1,317.977Z" transform="translate(-72.447 -261.803)" fill="#fff"/>
      <path id="Path_76" data-name="Path 76" d="M230.717,342.616l9.193-14.936c6.384,4.469,15.83,7.786,22.852,7.786,4.6,0,6.256-1.149,6.256-3.317,0-2.3-3.83-3.578-9.959-4.854-12-2.551-25.406-5.488-25.406-21.065,0-12.765,10.342-22.724,27.579-22.724a51.18,51.18,0,0,1,27.574,8.682l-8.3,15.064c-5.493-3.573-13.023-7.02-19.277-7.02-3.447,0-5.746,1.787-5.746,3.7,0,2.171,2.937,2.556,9.573,4.086,12,2.681,25.789,6.639,25.789,22.214,0,13.662-10.85,22.344-28.725,22.344C250.635,352.575,238.761,348.87,230.717,342.616Z" transform="translate(-28.746 -261.803)" fill="#fff"/>
      <path id="Path_77" data-name="Path 77" d="M253.971,342.616l9.193-14.936c6.384,4.469,15.83,7.786,22.852,7.786,4.6,0,6.256-1.149,6.256-3.317,0-2.3-3.83-3.578-9.959-4.854-12-2.551-25.406-5.488-25.406-21.065,0-12.765,10.342-22.724,27.576-22.724a51.182,51.182,0,0,1,27.576,8.682l-8.3,15.064c-5.493-3.573-13.023-7.02-19.28-7.02-3.445,0-5.743,1.787-5.743,3.7,0,2.171,2.934,2.556,9.573,4.086,12,2.681,25.789,6.639,25.789,22.214,0,13.662-10.85,22.344-28.725,22.344C273.889,352.575,262.015,348.87,253.971,342.616Z" transform="translate(6.216 -261.803)" fill="#fff"/>
      <path id="Path_78" data-name="Path 78" d="M324.586,283.506v20.426c-13.023,0-20.682,7.153-20.682,19.152v27.959H279.265v-66H303.9v11.746C308.246,288.613,315.651,283.506,324.586,283.506Z" transform="translate(44.246 -261.803)" fill="#fff"/>
      <path id="Path_79" data-name="Path 79" d="M296.553,317.977c0-18.766,16.979-34.471,37.28-34.471,20.168,0,37.15,15.7,37.15,34.471s-16.981,34.6-37.15,34.6C313.532,352.575,296.553,336.743,296.553,317.977Zm51.45,0a14.235,14.235,0,1,0-14.17,14.172A14.28,14.28,0,0,0,348,317.977Z" transform="translate(70.239 -261.803)" fill="#fff"/>
      <path id="Path_80" data-name="Path 80" d="M392.234,312.1v38.94H368.616v-4.724a25.353,25.353,0,0,1-16.979,6.256c-14.172,0-25.406-8.682-25.406-21.065,0-12.9,12.51-21.961,28.47-21.961a37.886,37.886,0,0,1,13.914,2.937V312.1c0-6.512-5.871-10.339-13.534-10.339-6.254,0-10.467,1.657-15.957,4.466l-7.533-14.936c9.193-4.6,19.024-7.788,30.132-7.788C378.445,283.506,392.234,294.1,392.234,312.1Zm-23.618,19.407v-6.256a26.733,26.733,0,0,0-10.467-2.045c-4.979,0-8.554,3.194-8.554,7.661,0,4.216,3.32,7.15,8.044,7.15C363.509,338.02,368.106,335.339,368.616,331.511Z" transform="translate(114.861 -261.803)" fill="#fff"/>
      <path id="Path_81" data-name="Path 81" d="M429.832,274.837v89.24H405.193v-7.788a27.586,27.586,0,0,1-21.065,9.32c-17.745,0-30.257-14.3-30.257-34.6,0-20.171,12.512-34.471,30.257-34.471a27.586,27.586,0,0,1,21.065,9.321V274.837Zm-24.639,56.174c0-8.172-5.488-14.045-13.276-14.045-8.552,0-14.555,5.873-14.555,14.045,0,8.3,6,14.172,14.555,14.172C399.705,345.183,405.193,339.31,405.193,331.011Z" transform="translate(156.417 -274.837)" fill="#fff"/>
      <path id="Path_82" data-name="Path 82" d="M384.825,342.616l9.193-14.936c6.384,4.469,15.832,7.786,22.852,7.786,4.6,0,6.256-1.149,6.256-3.317,0-2.3-3.83-3.578-9.956-4.854-12-2.551-25.408-5.488-25.408-21.065,0-12.765,10.342-22.724,27.579-22.724a51.188,51.188,0,0,1,27.576,8.682l-8.3,15.064c-5.49-3.573-13.023-7.02-19.277-7.02-3.447,0-5.746,1.787-5.746,3.7,0,2.171,2.937,2.556,9.573,4.086,12,2.681,25.789,6.639,25.789,22.214,0,13.662-10.85,22.344-28.725,22.344C404.745,352.575,392.869,348.87,384.825,342.616Z" transform="translate(202.956 -261.803)" fill="#fff"/>
    </g>
    <g id="Group_16" data-name="Group 16" transform="translate(185.725 230.192)">
      <path id="Path_83" data-name="Path 83" d="M164.295,230.8h47.236c16.726,0,28.342,9.318,28.342,22.086a21.317,21.317,0,0,1-12.127,19.66c10.212,4.341,16.213,12.64,16.213,22.344,0,14.042-12.765,23.618-30.64,23.618H164.295Zm41.238,34.088c5.107,0,8.807-2.811,8.807-6.639s-3.7-6.639-8.807-6.639h-16.6v13.279Zm3.7,32.809c5.363,0,9.193-2.937,9.193-7.022s-3.83-7.02-9.193-7.02h-20.3V297.7Z" transform="translate(-164.295 -229.272)" fill="#fff"/>
      <path id="Path_84" data-name="Path 84" d="M245.854,284.057l13.534,13.659c-5.873,6-17.106,10.214-27.2,10.214-21.065,0-35.873-14.428-35.873-34.726,0-20.171,14.428-34.343,34.854-34.343,21.192,0,33.7,14.938,33.7,40.342H218.151c1.918,6.256,6.767,10.342,13.023,10.342A24.349,24.349,0,0,0,245.854,284.057Zm-27.321-17.747h24c-1.788-5.49-6-9.063-11.361-9.063C225.3,257.247,220.707,260.819,218.534,266.309Z" transform="translate(-116.145 -217.158)" fill="#fff"/>
      <path id="Path_85" data-name="Path 85" d="M227.207,323.1l4.977-15.832c3.7,2.173,7.533,3.7,9.318,3.7,3.064,0,5.873-.894,6.642-2.043l1.277-2.551-26.685-66.9h25.15L261.42,280.2l12.765-40.727h24.77l-24.9,66.516c-5.36,14.17-15.064,22.466-26.3,22.466C241.122,328.455,232.567,326.287,227.207,323.1Z" transform="translate(-76.428 -216.238)" fill="#fff"/>
      <path id="Path_86" data-name="Path 86" d="M250.733,273.329c0-18.766,16.981-34.468,37.28-34.468,20.171,0,37.15,15.7,37.15,34.468s-16.979,34.6-37.15,34.6C267.714,307.93,250.733,292.1,250.733,273.329Zm51.45,0a14.235,14.235,0,1,0-14.17,14.175A14.278,14.278,0,0,0,302.183,273.329Z" transform="translate(-34.335 -217.158)" fill="#fff"/>
      <path id="Path_87" data-name="Path 87" d="M349.375,264.394v42H325.887V270.14c0-6.384-4.086-10.853-9.959-10.853-5.49,0-9.448,4.213-9.448,10.087V306.4H281.84V240.393h24.64v6.639c4.083-5.107,10.725-8.171,18.639-8.171C339.29,238.861,349.375,249.456,349.375,264.394Z" transform="translate(12.435 -217.158)" fill="#fff"/>
      <path id="Path_88" data-name="Path 88" d="M386.1,230.192v89.24H361.465v-7.788a27.589,27.589,0,0,1-21.065,9.321c-17.745,0-30.257-14.3-30.257-34.6,0-20.168,12.512-34.468,30.257-34.468a27.589,27.589,0,0,1,21.065,9.321V230.192Zm-24.637,56.171c0-8.169-5.49-14.042-13.279-14.042-8.552,0-14.555,5.873-14.555,14.042,0,8.3,6,14.175,14.555,14.175C355.975,300.538,361.465,294.665,361.465,286.363Z" transform="translate(54.989 -230.192)" fill="#fff"/>
      <path id="Path_89" data-name="Path 89" d="M306.479,246.111v-6.638H281.84v66h24.639V246.111Z" transform="translate(12.435 -216.238)" fill="#fff"/>
      <path id="Path_90" data-name="Path 90" d="M334.08,247.02c-8.552,0-14.555,5.873-14.555,14.042,0,8.3,6,14.175,14.555,14.175a12.61,12.61,0,0,0,11.619-7.05v-14.16A12.642,12.642,0,0,0,334.08,247.02Z" transform="translate(69.095 -204.891)" fill="none"/>
      <path id="Path_91" data-name="Path 91" d="M334.08,247.02c-8.552,0-14.555,5.873-14.555,14.042,0,8.3,6,14.175,14.555,14.175a12.6,12.6,0,0,0,10.209-4.869v-18.5A12.636,12.636,0,0,0,334.08,247.02Z" transform="translate(69.095 -204.891)" fill="none"/>
      <path id="Path_92" data-name="Path 92" d="M348.186,287.5c-8.552,0-14.555-5.873-14.555-14.175,0-8.169,6-14.042,14.555-14.042a12.636,12.636,0,0,1,10.209,4.847V245.272a27.605,27.605,0,0,0-18-6.411c-17.745,0-30.257,14.3-30.257,34.468,0,20.3,12.512,34.6,30.257,34.6a27.605,27.605,0,0,0,18-6.411V282.635A12.6,12.6,0,0,1,348.186,287.5Z" transform="translate(54.989 -217.158)" fill="#fff"/>
      <path id="Path_93" data-name="Path 93" d="M259.912,260.692A14.411,14.411,0,0,0,270.1,274.239V247.266A14.238,14.238,0,0,0,259.912,260.692Z" transform="translate(-20.534 -204.521)" fill="none"/>
      <path id="Path_94" data-name="Path 94" d="M273.713,273.189A14.238,14.238,0,0,1,283.9,259.763V238.954c-18.426,1.95-33.164,16.756-33.164,34.235s14.738,32.4,33.164,34.366V286.736A14.411,14.411,0,0,1,273.713,273.189Z" transform="translate(-34.335 -217.018)" fill="#fff"/>
    </g>
    <path id="Path_95" data-name="Path 95" d="M432.406,310.66H407.37V255.879H352.6V230.844h79.809Z" transform="translate(304.542 0.98)" fill="#ed3624"/>
    <g id="Group_17" data-name="Group 17" transform="translate(654.633 235.001)">
      <line id="Line_1" data-name="Line 1" x1="60.928" y2="61.18" transform="translate(8.869 8.833)" fill="#231f20"/>
      <rect id="Rectangle_5" data-name="Rectangle 5" width="86.343" height="25.036" transform="translate(0 61.18) rotate(-45.119)" fill="#ff2b06"/>
    </g>
  </g>
</svg>
