<svg xmlns="http://www.w3.org/2000/svg" width="257.804" height="49.341" viewBox="0 0 257.804 49.341">
  <g id="Group_7" data-name="Group 7" transform="translate(-533.455 -425.268)">
    <g id="Group_4" data-name="Group 4" transform="translate(533.455 426.832)">
      <g id="Group_1" data-name="Group 1" transform="translate(0 0.057)">
        <path id="Path_1" data-name="Path 1" d="M541.646,434.125h-8.191v-7.491h25.379v7.491h-8.188v21.737h-9Z" transform="translate(-533.455 -426.634)" fill="#ff2b06"/>
        <path id="Path_2" data-name="Path 2" d="M556.021,426.634h24.636v7.491h-15.63v3.642h15.63v6.961h-15.63v3.643h15.635v7.491H556.021Z" transform="translate(-529.243 -426.634)" fill="#ff2b06"/>
        <path id="Path_3" data-name="Path 3" d="M578.059,426.634h14.778c9.741,0,13.184,7.2,13.184,14.571,0,8.967-4.749,14.657-14.942,14.657h-13.02Zm9.005,21.737h3.521c5.61,0,6.43-4.546,6.43-7.291,0-1.839-.577-6.955-7.085-6.955h-2.866Z" transform="translate(-525.13 -426.634)" fill="#ff2b06"/>
      </g>
      <g id="Group_3" data-name="Group 3" transform="translate(81.807)">
        <g id="Group_2" data-name="Group 2">
          <path id="Path_4" data-name="Path 4" d="M614.418,444.608l-2.747-4.556-2.678,4.556h-6.6l6.263-9.211-6.032-8.811h6.6l2.444,4.355,2.515-4.355h6.6l-6.029,8.811,6.264,9.211Z" transform="translate(-602.395 -426.586)" fill="#ff2b06"/>
        </g>
      </g>
    </g>
    <text id="Maitama" transform="translate(637.259 456.268)" fill="#fff" font-size="40" font-family="Helvetica"><tspan x="0" y="0">Maitama</tspan></text>
    <g id="Group_6" data-name="Group 6" transform="translate(534.097 463.422)">
      <g id="Group_5" data-name="Group 5">
        <path id="Path_5" data-name="Path 5" d="M536.283,462.474l-2.09-3.012h1.992l1.118,1.659,1.107-1.659h1.929l-2.09,2.975,2.348,3.381h-1.991l-1.328-2-1.328,2H534Z" transform="translate(-533.996 -457.04)" fill="#ff2b06"/>
        <path id="Path_6" data-name="Path 6" d="M547.508,461.855H541.3v-1.316h6.208Zm0,2.631H541.3V463.17h6.208Z" transform="translate(-532.633 -456.839)" fill="#fff"/>
        <path id="Path_7" data-name="Path 7" d="M550.816,458.859H549.07v-1.438h1.745Zm-1.745.984h1.745V466.2H549.07Z" transform="translate(-531.183 -457.421)" fill="#fff"/>
        <path id="Path_8" data-name="Path 8" d="M551.494,459.489h1.66v.885h.037a2.266,2.266,0,0,1,1.943-1.057c1.856,0,2.323,1.044,2.323,2.618v3.91h-1.746v-3.59c0-1.045-.307-1.562-1.119-1.562-.947,0-1.352.528-1.352,1.819v3.332h-1.747Z" transform="translate(-530.73 -457.067)" fill="#fff"/>
        <path id="Path_9" data-name="Path 9" d="M562.01,465.387h-.025a2.112,2.112,0,0,1-1.931.984c-1.918,0-2.852-1.647-2.852-3.406,0-1.709.946-3.294,2.815-3.294a2.225,2.225,0,0,1,1.894.946h.012v-3.2h1.745V466.2H562.01Zm-1.525-4.4c-1.144,0-1.537.984-1.537,2.029,0,1,.454,2.041,1.537,2.041,1.156,0,1.5-1.009,1.5-2.054S561.616,460.986,560.485,460.986Z" transform="translate(-529.665 -457.421)" fill="#fff"/>
        <path id="Path_10" data-name="Path 10" d="M565.04,463.091c.05,1.107.591,1.611,1.562,1.611a1.435,1.435,0,0,0,1.377-.825h1.538a2.861,2.861,0,0,1-2.976,2.14,3.1,3.1,0,0,1-3.245-3.344,3.187,3.187,0,0,1,3.245-3.356c2.164,0,3.209,1.819,3.086,3.773Zm2.841-1.106c-.16-.885-.541-1.353-1.39-1.353a1.376,1.376,0,0,0-1.451,1.353Z" transform="translate(-528.528 -457.067)" fill="#fff"/>
        <path id="Path_11" data-name="Path 11" d="M569.292,459.489h1.66v.812h.025a2.113,2.113,0,0,1,1.893-.984c1.992,0,2.889,1.61,2.889,3.417,0,1.7-.934,3.282-2.791,3.282a2.259,2.259,0,0,1-1.906-.959h-.024v3.025h-1.747Zm4.722,3.2c0-1.007-.406-2.053-1.525-2.053-1.143,0-1.512,1.021-1.512,2.053s.393,2.017,1.525,2.017S574.014,463.718,574.014,462.685Z" transform="translate(-527.408 -457.067)" fill="#fff"/>
        <path id="Path_12" data-name="Path 12" d="M576.9,463.091c.05,1.107.591,1.611,1.562,1.611a1.439,1.439,0,0,0,1.378-.825h1.537a2.86,2.86,0,0,1-2.976,2.14,3.1,3.1,0,0,1-3.245-3.344,3.187,3.187,0,0,1,3.245-3.356c2.164,0,3.21,1.819,3.086,3.773Zm2.841-1.106c-.16-.885-.541-1.353-1.39-1.353a1.376,1.376,0,0,0-1.451,1.353Z" transform="translate(-526.314 -457.067)" fill="#fff"/>
        <path id="Path_13" data-name="Path 13" d="M581.155,459.489h1.659v.885h.037a2.268,2.268,0,0,1,1.943-1.057c1.857,0,2.323,1.044,2.323,2.618v3.91h-1.746v-3.59c0-1.045-.307-1.562-1.119-1.562-.946,0-1.352.528-1.352,1.819v3.332h-1.745Z" transform="translate(-525.194 -457.067)" fill="#fff"/>
        <path id="Path_14" data-name="Path 14" d="M591.67,465.387h-.025a2.112,2.112,0,0,1-1.931.984c-1.918,0-2.852-1.647-2.852-3.406,0-1.709.947-3.294,2.815-3.294a2.225,2.225,0,0,1,1.894.946h.012v-3.2h1.746V466.2H591.67Zm-1.525-4.4c-1.143,0-1.537.984-1.537,2.029,0,1,.454,2.041,1.537,2.041,1.156,0,1.5-1.009,1.5-2.054S591.276,460.986,590.145,460.986Z" transform="translate(-524.129 -457.421)" fill="#fff"/>
        <path id="Path_15" data-name="Path 15" d="M594.7,463.091c.049,1.107.59,1.611,1.56,1.611a1.437,1.437,0,0,0,1.378-.825h1.537a2.86,2.86,0,0,1-2.975,2.14,3.1,3.1,0,0,1-3.247-3.344,3.188,3.188,0,0,1,3.247-3.356c2.163,0,3.209,1.819,3.085,3.773Zm2.84-1.106c-.16-.885-.541-1.353-1.39-1.353a1.375,1.375,0,0,0-1.45,1.353Z" transform="translate(-522.992 -457.067)" fill="#fff"/>
        <path id="Path_16" data-name="Path 16" d="M598.953,459.489h1.66v.885h.037a2.266,2.266,0,0,1,1.943-1.057c1.856,0,2.323,1.044,2.323,2.618v3.91h-1.747v-3.59c0-1.045-.307-1.562-1.118-1.562-.947,0-1.353.528-1.353,1.819v3.332h-1.746Z" transform="translate(-521.873 -457.067)" fill="#fff"/>
        <path id="Path_17" data-name="Path 17" d="M607.195,459.762h1.278v1.168h-1.278v3.147c0,.591.147.738.737.738a2.6,2.6,0,0,0,.541-.05v1.365a6.6,6.6,0,0,1-1.021.062c-1.069,0-2-.246-2-1.512v-3.75h-1.057v-1.168h1.057v-1.906h1.746Z" transform="translate(-520.857 -457.34)" fill="#fff"/>
        <path id="Path_18" data-name="Path 18" d="M608.37,457.421h1.746V466.2H608.37Z" transform="translate(-520.115 -457.421)" fill="#fff"/>
        <path id="Path_19" data-name="Path 19" d="M614.045,466.617a1.994,1.994,0,0,1-2.188,1.438,10.434,10.434,0,0,1-1.07-.062v-1.438a9.323,9.323,0,0,0,1.021.062.823.823,0,0,0,.6-1.193l-2.238-5.963h1.869l1.438,4.351h.025l1.39-4.351H616.7Z" transform="translate(-519.779 -457.04)" fill="#fff"/>
        <path id="Path_20" data-name="Path 20" d="M621.753,459.317a3.351,3.351,0,1,1-3.282,3.356A3.121,3.121,0,0,1,621.753,459.317Zm0,5.385c1.193,0,1.549-1.021,1.549-2.029s-.356-2.041-1.549-2.041-1.537,1.021-1.537,2.041S620.573,464.7,621.753,464.7Z" transform="translate(-518.23 -457.067)" fill="#fff"/>
        <path id="Path_21" data-name="Path 21" d="M624.552,459.489h1.66v1.18h.024a2.249,2.249,0,0,1,2.029-1.352,1.3,1.3,0,0,1,.381.061V461a3.19,3.19,0,0,0-.627-.062c-1.279,0-1.722.922-1.722,2.041v2.865h-1.746Z" transform="translate(-517.095 -457.067)" fill="#fff"/>
        <path id="Path_22" data-name="Path 22" d="M634.516,465.439c0,1.045-.369,2.816-3.3,2.816-1.253,0-2.716-.59-2.8-2.041h1.734a1.182,1.182,0,0,0,1.3.873c.972,0,1.414-.664,1.4-1.575v-.835h-.024a2.151,2.151,0,0,1-1.906.984c-1.906,0-2.717-1.451-2.717-3.2,0-1.647.947-3.147,2.729-3.147a1.978,1.978,0,0,1,1.894,1.021h.024v-.848h1.66Zm-1.66-2.852c0-1.034-.356-1.956-1.487-1.956-.984,0-1.414.86-1.414,1.807,0,.91.344,1.906,1.414,1.906A1.564,1.564,0,0,0,632.856,462.587Z" transform="translate(-516.412 -457.067)" fill="#fff"/>
        <path id="Path_23" data-name="Path 23" d="M634.259,461.443c.1-1.635,1.562-2.126,2.988-2.126,1.266,0,2.791.282,2.791,1.807v3.307a3.246,3.246,0,0,0,.221,1.413h-1.771a2.568,2.568,0,0,1-.122-.615,2.918,2.918,0,0,1-2.14.787c-1.206,0-2.164-.6-2.164-1.906,0-1.438,1.082-1.782,2.164-1.93s2.065-.123,2.065-.837c0-.75-.516-.86-1.131-.86-.663,0-1.094.271-1.156.959Zm4.032,1.291a3.476,3.476,0,0,1-1.45.369c-.541.11-1.032.294-1.032.934s.5.812,1.069.812a1.3,1.3,0,0,0,1.413-1.463Z" transform="translate(-515.32 -457.067)" fill="#fff"/>
        <path id="Path_24" data-name="Path 24" d="M640.03,459.489h1.659v.885h.037a2.268,2.268,0,0,1,1.943-1.057c1.857,0,2.325,1.044,2.325,2.618v3.91h-1.747v-3.59c0-1.045-.307-1.562-1.118-1.562-.947,0-1.353.528-1.353,1.819v3.332H640.03Z" transform="translate(-514.206 -457.067)" fill="#fff"/>
        <path id="Path_25" data-name="Path 25" d="M647.546,458.859H645.8v-1.438h1.746Zm-1.746.984h1.746V466.2H645.8Z" transform="translate(-513.129 -457.421)" fill="#fff"/>
        <path id="Path_26" data-name="Path 26" d="M647.893,464.5l3.307-3.726h-3.062v-1.315h5.36v1.315l-3.307,3.726h3.541v1.315h-5.839Z" transform="translate(-512.738 -457.04)" fill="#fff"/>
        <path id="Path_27" data-name="Path 27" d="M654.881,463.091c.05,1.107.591,1.611,1.562,1.611a1.437,1.437,0,0,0,1.377-.825h1.537a2.859,2.859,0,0,1-2.975,2.14,3.1,3.1,0,0,1-3.245-3.344,3.187,3.187,0,0,1,3.245-3.356c2.164,0,3.209,1.819,3.086,3.773Zm2.84-1.106c-.159-.885-.54-1.353-1.388-1.353a1.376,1.376,0,0,0-1.451,1.353Z" transform="translate(-511.76 -457.067)" fill="#fff"/>
        <path id="Path_28" data-name="Path 28" d="M663.713,465.387h-.025a2.111,2.111,0,0,1-1.931.984c-1.918,0-2.853-1.647-2.853-3.406,0-1.709.947-3.294,2.816-3.294a2.225,2.225,0,0,1,1.894.946h.012v-3.2h1.746V466.2h-1.659Zm-1.525-4.4c-1.144,0-1.537.984-1.537,2.029,0,1,.455,2.041,1.537,2.041,1.156,0,1.5-1.009,1.5-2.054S663.319,460.986,662.188,460.986Z" transform="translate(-510.683 -457.421)" fill="#fff"/>
        <path id="Path_29" data-name="Path 29" d="M670.135,459.043H667.5v-1.622H674.7v1.622h-2.631V466.2h-1.931Z" transform="translate(-509.078 -457.421)" fill="#fff"/>
        <path id="Path_30" data-name="Path 30" d="M674.207,457.421h6.566v1.622h-4.635v1.881h4.253v1.5h-4.253v2.151h4.732V466.2h-6.663Z" transform="translate(-507.827 -457.421)" fill="#fff"/>
        <path id="Path_31" data-name="Path 31" d="M680.506,457.421h3.787c2.275,0,3.984,1.426,3.984,4.34,0,2.545-1.3,4.438-3.984,4.438h-3.787Zm1.931,7.154h1.721c1.119,0,2.188-.688,2.188-2.631,0-1.771-.615-2.9-2.532-2.9h-1.377Z" transform="translate(-506.652 -457.421)" fill="#fff"/>
        <path id="Path_32" data-name="Path 32" d="M691.98,463.091c.049,1.107.59,1.611,1.562,1.611a1.437,1.437,0,0,0,1.377-.825h1.537a2.859,2.859,0,0,1-2.975,2.14,3.1,3.1,0,0,1-3.245-3.344,3.187,3.187,0,0,1,3.245-3.356c2.164,0,3.209,1.819,3.086,3.773Zm2.84-1.106c-.159-.885-.54-1.353-1.388-1.353a1.376,1.376,0,0,0-1.451,1.353Z" transform="translate(-504.836 -457.067)" fill="#fff"/>
        <path id="Path_33" data-name="Path 33" d="M699.636,465.818h-1.942l-2.176-6.356h1.832l1.34,4.34h.025l1.34-4.34h1.734Z" transform="translate(-503.85 -457.04)" fill="#fff"/>
        <path id="Path_34" data-name="Path 34" d="M702.485,463.091c.049,1.107.59,1.611,1.562,1.611a1.436,1.436,0,0,0,1.376-.825h1.537a2.859,2.859,0,0,1-2.975,2.14,3.1,3.1,0,0,1-3.245-3.344,3.187,3.187,0,0,1,3.245-3.356c2.164,0,3.209,1.819,3.085,3.773Zm2.84-1.106c-.159-.885-.54-1.353-1.388-1.353a1.376,1.376,0,0,0-1.451,1.353Z" transform="translate(-502.875 -457.067)" fill="#fff"/>
        <path id="Path_35" data-name="Path 35" d="M706.737,459.489h1.66v.885h.037a2.268,2.268,0,0,1,1.943-1.057c1.857,0,2.323,1.044,2.323,2.618v3.91h-1.746v-3.59c0-1.045-.307-1.562-1.119-1.562-.947,0-1.352.528-1.352,1.819v3.332h-1.747Z" transform="translate(-501.756 -457.067)" fill="#fff"/>
        <path id="Path_36" data-name="Path 36" d="M714.979,459.762h1.279v1.168h-1.279v3.147c0,.591.148.738.738.738a2.6,2.6,0,0,0,.541-.05v1.365a6.612,6.612,0,0,1-1.021.062c-1.069,0-2-.246-2-1.512v-3.75h-1.057v-1.168h1.057v-1.906h1.745Z" transform="translate(-500.741 -457.34)" fill="#fff"/>
      </g>
    </g>
  </g>
</svg>
